# xmcd CD database file
#
# Track frame offsets:
#	150
#	10972
#	21160
#	30657
#	40477
#	51095
#	61130
#	71447
#	82330
#	91222
#	101637
#	112752
#	123757
#	135620
#	144440
#	155460
#	164845
#	175615
#	187067
#	198767
#	208090
#	218950
#	229425
#	243510
#	253635
#	264220
#
# Disc length: 3667 seconds
#
# Revision: 3
# Processed by: cddbd v1.5.2PL0 Copyright (c) Steve Scherf et al.
# Submitted via: Feurio! 1.68 - http://www.feurio.com
#
DISCID=700e511a
DTITLE=Everly Brothers - The Definitive [CD1]
DYEAR=2002
DGENRE=Folk-Rock
TTITLE0=Bye Bye Love
TTITLE1=I Wonder If I Care As Much
TTITLE2=Wake Up Little Suzi
TTITLE3=Maybe Tomorrow
TTITLE4=All I Have To Do Is Dream
TTITLE5=Claudette
TTITLE6=Bird Dog
TTITLE7=Devoted To You
TTITLE8=Problems
TTITLE9=Poor Jenny
TTITLE10=Take A Message To Mary
TTITLE11=('til) I Kissed You
TTITLE12=Let It Be Me
TTITLE13=Since You Broke My Heart
TTITLE14=Cathy's Clown
TTITLE15=When Will I Be Loved
TTITLE16=Love Hurts
TTITLE17=Lucille
TTITLE18=So Sad (To Watch Good Love Go Bad)
TTITLE19=Like Strangers
TTITLE20=Sleepless Nights
TTITLE21=Walk Right Back
TTITLE22=Ebony Eyes
TTITLE23=Temptation
TTITLE24=Muskrat
TTITLE25=Don't Blame Me
EXTD=
EXTT0=
EXTT1=
EXTT2=
EXTT3=
EXTT4=
EXTT5=
EXTT6=
EXTT7=
EXTT8=
EXTT9=
EXTT10=
EXTT11=
EXTT12=
EXTT13=
EXTT14=
EXTT15=
EXTT16=
EXTT17=
EXTT18=
EXTT19=
EXTT20=
EXTT21=
EXTT22=
EXTT23=
EXTT24=
EXTT25=
PLAYORDER=
